<svg height='300px' width='300px'  fill="#000000" xmlns="http://www.w3.org/2000/svg" data-name="Layer 1" viewBox="0 0 100 100" x="0px" y="0px"><title>HITAM</title><path d="M37,53.61A83.09,83.09,0,0,1,32.9,68H67.1a82.27,82.27,0,0,1-5.52-27H38.42A83.16,83.16,0,0,1,37,53.61Z"></path><polygon points="67.5 74 67.5 69 32.5 69 32.5 74 30 77 30 85 70 85 70 77 67.5 74"></polygon><path d="M38.07,24.06,38,23.64A1.45,1.45,0,0,0,38.07,24.06Z"></path><path d="M60.5,15v8h-5V15h-11v8h-5V15h-7V34.64l6,5.36h23.1l6-5.36V15Z"></path></svg>